<svg width="18" height="18" viewBox="0 0 18 18" fill="none" xmlns="http://www.w3.org/2000/svg">
<g id="search-svgrepo-com (3) 1" clip-path="url(#clip0_14590_8930)">
<g id="Page-1">
<g id="Icon-Set">
<path id="search" fill-rule="evenodd" clip-rule="evenodd" d="M7.57125 13.7531C4.03312 13.7531 1.16495 10.935 1.16495 7.45313C1.16495 3.97125 4.03312 1.14752 7.57125 1.14752C11.1094 1.14752 13.9781 3.97125 13.9781 7.45313C13.9781 10.935 11.1094 13.7531 7.57125 13.7531ZM17.8245 17.0156L13.1788 12.4425C14.3949 11.1206 15.1425 9.37688 15.1425 7.45313C15.1425 3.33563 11.7529 0 7.57125 0C3.38962 0 0 3.33563 0 7.45313C0 11.565 3.38962 14.9006 7.57125 14.9006C9.378 14.9006 11.0351 14.2763 12.3368 13.2356L17.001 17.8256C17.2288 18.0506 17.5972 18.0506 17.8245 17.8256C18.0523 17.6062 18.0523 17.2406 17.8245 17.0156Z" fill="white"/>
</g>
</g>
</g>
<defs>
<clipPath id="clip0_14590_8930">
<rect width="18" height="18" fill="white"/>
</clipPath>
</defs>
</svg>
